# xmcd CD database file
#
# Track frame offsets:
#	150
#	21975
#	35305
#	49167
#	68495
#	88947
#	102595
#	122662
#	135850
#
# Disc length: 2106 seconds
#
# Revision: 0
# Processed by: cddbd v1.5.2PL0 Copyright (c) Steve Scherf et al.
# Submitted via: CDex 1.77
#
DISCID=72083809
DTITLE=Muddy Waters - Muddy Waters At Newport
DYEAR=1960
DGENRE=Blues
TTITLE0=I Got My Brand On You
TTITLE1=I'm Your Hoochie Coochie Man
TTITLE2=Baby Please Don't Go
TTITLE3=Soon Forgotten
TTITLE4=Tiger In Your Tank
TTITLE5=I Feel So Good
TTITLE6=I've Got My Mojo Working
TTITLE7=I've Got My Mojo Working, Part 2
TTITLE8=Goodbye Newport Blues
EXTD=YEAR: 1960
EXTT0=
EXTT1=
EXTT2=
EXTT3=
EXTT4=
EXTT5=
EXTT6=
EXTT7=
EXTT8=
PLAYORDER=
